<svg id="ono_копия_2" data-name="ono копия 2" xmlns="http://www.w3.org/2000/svg" viewBox="0 0 158.47 251.8">
  <defs>
    <style>
      .cls-1 {
        fill: #2b295a;
      }

      .cls-2 {
        fill: #b6ada6;
      }

      .cls-3 {
        fill: #5d6381;
      }
    </style>
  </defs>
  <title>logo_adv</title>
  <g id="Фигура_6" data-name="Фигура 6">
    <path class="cls-1" d="M328.3,88.4a8.68,8.68,0,0,0-3.4-6.3c-13.4-9.3-27.1-18.4-40.7-27.4-1.6-1.1-3.4-2-5.9-3.5,0,10.5-.1,19.8.1,29a4.71,4.71,0,0,0,2.2,3.4c9.8,3.6,19,10,30.7,7.3l-7.4,5c5.2,12.1,10.2,24.1,15.7,36,1.6,3.5,1.1,6-1.2,8.7-6.9,8.3-22.4,9.5-31.2,2.5-4.1-3.3-5.8-6.8-3.1-12.2,5.5-11.4,10.3-23.2,15.4-35l-20.4-3.8v91.7c3.8,2.2,9.8-1.6,12.5,5.3-2,0-8.6-.3-12.7,0,4.3,3.3,10.8,2.2,15.7,2.9,2.3.3,5,.4,7.2,1.5.6.3,6.5,2.8,5,3.5s-12.6.1-28,.1v54.7c16.6-11.1,32.3-21.5,47.8-32.1,1.2-.8,1.6-3.3,1.6-5C328.4,172.4,328.4,130.4,328.3,88.4Z" transform="translate(-169.9 0)"/>
  </g>
  <g id="Фигура_7" data-name="Фигура 7">
    <path class="cls-2" d="M273.2,34.7c-3.1-6-11.8-9.1-18-13.5-.5-.3-.9-.7-1.4-1L223.7,0V80.2c7.7,2.6,14.2,5,22,7.6-1.9-6.7-3.9-11.9-3.8-16.5.1-5.6,5.3-18,7.1-18s6.7,10.7,7,18-5,15.5-4.3,16.3l22.4-7.7V57C274.1,49.6,276.3,40.7,273.2,34.7ZM240.8,169.9c1.8-7.9,3.7-15.9,4.1-24,.7-11.6,1.6-23.5-.2-34.9-1.7-11.7-6-21.9-21-19.4V177C233,179,239.3,176.5,240.8,169.9Zm18.1-73.7c-3.3,5.3-6,10.4-6.3,16.4a221.38,221.38,0,0,0,3,52.7c2,10.7,8,14.4,18.2,11.4v-85C268.3,90.7,261.8,91.6,258.9,96.2ZM227,197.9c-1.2,0-3.4,1.6-3.4,2.5-.3,9.2-.2,18.5-.2,29l45.1-30.2-.4-1.5C254.4,197.8,240.7,197.8,227,197.9Zm-3.6-12.8h50.3c-4.5-4.2-47.6-3.7-50.3,0Zm.3,7.3h50.1v-3.3h-50Z" transform="translate(-169.9 0)"/>
  </g>
  <g id="Фигура_8" data-name="Фигура 8">
    <path class="cls-3" d="M219.8,185.7l-13.4-.6c-.2-.6.7-1.7,2-2.6a5.28,5.28,0,0,1,3.1-1.4,36.39,36.39,0,0,1,6.6-.1V90.8l-20,3.8c.8,1.7,1.5,3.4,2.2,5,4.5,10.4,9.1,20.7,13.4,31.2.8,1.9.7,5-.4,6.5-7.1,10-24.8,10.6-33,1.5-2.6-2.9-3.4-5.4-1.6-9.3,5.4-11.6,10.2-23.4,15.2-35l-7.6-4.7c12,2.8,21.1-3.8,30.9-7.4a3.47,3.47,0,0,0,1.6-2.6c.1-9.8.1-19.5.1-30.1-2,1.1-3.3,1.7-4.5,2.5-13.4,9-26.8,18.2-40.3,27-3,2-4.2,4-4.2,7.6q.3,61,.2,122a7.37,7.37,0,0,0,4,7.1c8.8,5.6,17.4,11.5,26,17.2,5.8,3.9,11.6,7.8,18.2,12.2V193.1H196.8C202.8,183.7,212.4,190.9,219.8,185.7Z" transform="translate(-169.9 0)"/>
  </g>
</svg>
