<svg xmlns="http://www.w3.org/2000/svg" height="511pt" version="1.1" fill="#5d6381" viewBox="1 0 511.99995 511" width="511pt">
<g id="surface1">
<path d="M 456.8125 161.160156 L 391.484375 161.160156 L 391.484375 110.832031 L 496.980469 110.832031 C 496.988281 110.828125 496.992188 110.828125 497 110.832031 C 505.285156 110.832031 512 104.113281 512 95.832031 C 512 91.453125 510.125 87.515625 507.136719 84.773438 L 478.027344 55.664062 L 507.585938 26.105469 C 511.875 21.816406 513.160156 15.367188 510.839844 9.757812 C 508.515625 4.15625 503.046875 0.5 496.980469 0.5 L 376.484375 0.5 C 368.203125 0.5 361.484375 7.214844 361.484375 15.5 L 361.484375 161.160156 L 344.351562 161.160156 C 313.933594 161.160156 289.1875 185.90625 289.1875 216.324219 L 289.1875 497.480469 C 289.1875 505.765625 295.90625 512.480469 304.1875 512.480469 L 496.980469 512.480469 C 505.265625 512.480469 511.980469 505.765625 511.980469 497.480469 L 511.980469 216.328125 C 511.980469 185.910156 487.230469 161.160156 456.8125 161.160156 Z M 456.8125 161.160156 "/>
<path d="M 0 457.316406 L 0 497.480469 C 0 505.765625 6.714844 512.480469 15 512.480469 L 66.394531 512.480469 L 66.394531 402.152344 L 55.164062 402.152344 C 24.746094 402.152344 0 426.898438 0 457.316406 Z M 0 457.316406 " />
<path d="M 96.394531 376.984375 L 96.394531 497.480469 C 96.394531 505.765625 103.109375 512.480469 111.394531 512.480469 L 162.792969 512.480469 L 162.792969 321.824219 L 151.558594 321.824219 C 121.140625 321.824219 96.394531 346.570312 96.394531 376.984375 Z M 96.394531 376.984375 " />
<path d="M 192.792969 296.65625 L 192.792969 497.480469 C 192.792969 505.765625 199.507812 512.480469 207.789062 512.480469 L 259.1875 512.480469 L 259.1875 241.492188 L 247.957031 241.492188 C 217.539062 241.492188 192.792969 266.238281 192.792969 296.65625 Z M 192.792969 296.65625 "  />
</g>
</svg>