<svg viewBox="0 0 512 512" fill="#5d6381" xmlns="http://www.w3.org/2000/svg"><path d="m46 181h15v-90h-15c-24.851562 0-46 20.148438-46 45s21.148438 45 46 45zm0 0"/><path d="m391 91h30v90h-30zm0 0"/><path d="m406 302c-24.8125 0-45 20.1875-45 45s20.1875 45 45 45h106v-90zm30 60h-30v-30h30zm0 0"/><path d="m151 61h180v-61h-240v181h60zm0 0"/><path d="m181 91h180v90h-180zm0 0"/><path d="m331 347c0-41.351562 33.648438-75 75-75h75v-61c-634.371094 0-285.460938 0-435 0-16.949219 0-33.425781-5.863281-46-15.382812v241.382812c0 41.351562 34.648438 75 76 75h405v-90h-75c-41.351562 0-75-33.648438-75-75zm0 0"/></svg>