<svg height="512pt" viewBox="0 0 512.00014 512" width="512pt" fill="#5d6381" xmlns="http://www.w3.org/2000/svg"><path d="m271 300h60v152h-60zm0 0"/><path d="m181 300h60v152h-60zm0 0"/><path d="m256 180c-8.277344 0-15 6.722656-15 15s6.722656 15 15 15 15-6.722656 15-15-6.722656-15-15-15zm0 0"/><path d="m497 422h-45v-161l-196-151.652344-195 150.890625v161.761719h-46c-8.289062 0-15 6.710938-15 15s6.710938 15 15 15h136v-167c0-8.289062 6.710938-15 15-15h180c8.289062 0 15 6.710938 15 15v167h136c8.289062 0 15-6.710938 15-15s-6.710938-15-15-15zm-241-182c-24.808594 0-45-20.191406-45-45s20.191406-45 45-45 45 20.191406 45 45-20.191406 45-45 45zm0 0"/><path d="m505.847656 188.871094-240.984375-185.992188c-5.273437-3.839844-12.453125-3.839844-17.726562 0l-240.984375 185.996094c-6.835938 5.011719-8.109375 14.503906-3.148438 21.125l18.015625 24.007812c4.957031 6.582032 14.21875 7.917969 20.832031 3.121094l214.148438-165.710937 214.164062 165.703125c6.621094 4.847656 15.894532 3.414062 20.816407-3.121094l18.015625-24.007812c4.960937-6.621094 3.683594-16.113282-3.148438-21.121094zm0 0"/><path d="m76 30c-8.285156 0-15 6.714844-15 15v64.433594c19.070312-14.832032 39.757812-30.945313 59.589844-46.402344.140625-.109375.269531-.210938.410156-.320312v-17.710938c0-8.285156-6.714844-15-15-15zm0 0"/><path d="m122.582031 490.289062c-2.328125 4.644532-2.078125 10.167969.660157 14.589844 2.738281 4.425782 7.558593 7.121094 12.757812 7.121094h240c5.199219 0 10.019531-2.695312 12.757812-7.121094 2.742188-4.421875 2.988282-9.945312.660157-14.589844l-4.144531-8.289062h-258.546876zm0 0"/></svg>